<mxfile host="app.diagrams.net" agent="Mozilla/5.0 (Windows NT 10.0; Win64; x64) AppleWebKit/537.36 (KHTML, like Gecko) Chrome/128.0.0.0 Safari/537.36" version="24.7.6">
  <diagram name="Page-1" id="hjRgQwKiIgRbGK81_BRR">
    <mxGraphModel dx="1050" dy="618" grid="1" gridSize="10" guides="1" tooltips="1" connect="1" arrows="1" fold="1" page="1" pageScale="1" pageWidth="850" pageHeight="1100" math="0" shadow="0">
      <root>
        <mxCell id="0" />
        <mxCell id="1" parent="0" />
        <mxCell id="7PU2nVzOQJ5yzUcttu9B-1" value="Flower Shop&lt;br/&gt;Create a class diagram for a flower shop that handles floral arrangements, customer orders, inventory, staff and 4 or 5 more&lt;br/&gt;classes." style="text;html=1;align=center;verticalAlign=middle;whiteSpace=wrap;rounded=0;" vertex="1" parent="1">
          <mxGeometry x="110" y="20" width="470" height="40" as="geometry" />
        </mxCell>
      </root>
    </mxGraphModel>
  </diagram>
</mxfile>
